<?xml version="1.0" encoding="UTF-8" standalone="no"?>
<!DOCTYPE svg PUBLIC "-//W3C//DTD SVG 1.1//EN"
 "http://www.w3.org/Graphics/SVG/1.1/DTD/svg11.dtd">
<!-- Generated by graphviz version 2.43.0 (0)
 -->
<!-- Title: Context_DFD Pages: 1 -->
<svg width="621pt" height="144pt"
 viewBox="0.00 0.00 620.88 143.76" xmlns="http://www.w3.org/2000/svg" xmlns:xlink="http://www.w3.org/1999/xlink">
<g id="graph0" class="graph" transform="scale(1 1) rotate(0) translate(4 139.76)">
<title>Context_DFD</title>
<polygon fill="white" stroke="transparent" points="-4,4 -4,-139.76 616.88,-139.76 616.88,4 -4,4"/>
<!-- system -->
<g id="node1" class="node">
<title>system</title>
<ellipse fill="lightblue" stroke="black" cx="67.88" cy="-67.88" rx="67.76" ry="67.76"/>
<text text-anchor="middle" x="67.88" y="-71.68" font-family="Times,serif" font-size="14.00">RosterBhai</text>
<text text-anchor="middle" x="67.88" y="-56.68" font-family="Times,serif" font-size="14.00">System</text>
</g>
<!-- company -->
<g id="node2" class="node">
<title>company</title>
<polygon fill="lightyellow" stroke="black" points="236.38,-85.88 153.38,-85.88 153.38,-49.88 236.38,-49.88 236.38,-85.88"/>
<text text-anchor="middle" x="194.88" y="-64.18" font-family="Times,serif" font-size="14.00">Company</text>
</g>
<!-- developer -->
<g id="node3" class="node">
<title>developer</title>
<polygon fill="lightyellow" stroke="black" points="343.38,-85.88 254.38,-85.88 254.38,-49.88 343.38,-49.88 343.38,-85.88"/>
<text text-anchor="middle" x="298.88" y="-64.18" font-family="Times,serif" font-size="14.00">Developer</text>
</g>
<!-- admin -->
<g id="node4" class="node">
<title>admin</title>
<polygon fill="lightyellow" stroke="black" points="422.88,-85.88 360.88,-85.88 360.88,-49.88 422.88,-49.88 422.88,-85.88"/>
<text text-anchor="middle" x="391.88" y="-64.18" font-family="Times,serif" font-size="14.00">Admin</text>
</g>
<!-- employee -->
<g id="node5" class="node">
<title>employee</title>
<polygon fill="lightyellow" stroke="black" points="528.38,-85.88 441.38,-85.88 441.38,-49.88 528.38,-49.88 528.38,-85.88"/>
<text text-anchor="middle" x="484.88" y="-64.18" font-family="Times,serif" font-size="14.00">Employee</text>
</g>
<!-- google -->
<g id="node6" class="node">
<title>google</title>
<polygon fill="lightyellow" stroke="black" points="612.88,-85.88 546.88,-85.88 546.88,-49.88 612.88,-49.88 612.88,-85.88"/>
<text text-anchor="middle" x="579.88" y="-64.18" font-family="Times,serif" font-size="14.00">Google</text>
</g>
</g>
</svg>
