<?xml version="1.0" encoding="UTF-8" standalone="no"?>
<!DOCTYPE svg PUBLIC "-//W3C//DTD SVG 1.1//EN"
 "http://www.w3.org/Graphics/SVG/1.1/DTD/svg11.dtd">
<!-- Generated by graphviz version 2.43.0 (0)
 -->
<!-- Title: ER_Diagram Pages: 1 -->
<svg width="148pt" height="314pt"
 viewBox="0.00 0.00 148.00 314.00" xmlns="http://www.w3.org/2000/svg" xmlns:xlink="http://www.w3.org/1999/xlink">
<g id="graph0" class="graph" transform="scale(1 1) rotate(0) translate(4 310)">
<title>ER_Diagram</title>
<polygon fill="white" stroke="transparent" points="-4,4 -4,-310 144,-310 144,4 -4,4"/>
<!-- Tenant -->
<g id="node1" class="node">
<title>Tenant</title>
<polygon fill="lightblue" stroke="black" points="102.5,-36 37.5,-36 37.5,0 102.5,0 102.5,-36"/>
<text text-anchor="middle" x="70" y="-14.3" font-family="Times,serif" font-size="14.00">Tenant</text>
</g>
<!-- Employee -->
<g id="node2" class="node">
<title>Employee</title>
<polygon fill="lightblue" stroke="black" points="113.5,-90 26.5,-90 26.5,-54 113.5,-54 113.5,-90"/>
<text text-anchor="middle" x="70" y="-68.3" font-family="Times,serif" font-size="14.00">Employee</text>
</g>
<!-- Admin -->
<g id="node3" class="node">
<title>Admin</title>
<polygon fill="lightblue" stroke="black" points="101,-144 39,-144 39,-108 101,-108 101,-144"/>
<text text-anchor="middle" x="70" y="-122.3" font-family="Times,serif" font-size="14.00">Admin</text>
</g>
<!-- Developer -->
<g id="node4" class="node">
<title>Developer</title>
<polygon fill="lightblue" stroke="black" points="114.5,-198 25.5,-198 25.5,-162 114.5,-162 114.5,-198"/>
<text text-anchor="middle" x="70" y="-176.3" font-family="Times,serif" font-size="14.00">Developer</text>
</g>
<!-- ScheduleRequest -->
<g id="node5" class="node">
<title>ScheduleRequest</title>
<polygon fill="lightblue" stroke="black" points="140,-252 0,-252 0,-216 140,-216 140,-252"/>
<text text-anchor="middle" x="70" y="-230.3" font-family="Times,serif" font-size="14.00">ScheduleRequest</text>
</g>
<!-- RosterData -->
<g id="node6" class="node">
<title>RosterData</title>
<polygon fill="lightblue" stroke="black" points="119,-306 21,-306 21,-270 119,-270 119,-306"/>
<text text-anchor="middle" x="70" y="-284.3" font-family="Times,serif" font-size="14.00">RosterData</text>
</g>
</g>
</svg>
