<?xml version="1.0" encoding="UTF-8" standalone="no"?>
<!DOCTYPE svg PUBLIC "-//W3C//DTD SVG 1.1//EN"
 "http://www.w3.org/Graphics/SVG/1.1/DTD/svg11.dtd">
<!-- Generated by graphviz version 2.43.0 (0)
 -->
<!-- Title: System_Architecture Pages: 1 -->
<svg width="505pt" height="99pt"
 viewBox="0.00 0.00 505.00 99.00" xmlns="http://www.w3.org/2000/svg" xmlns:xlink="http://www.w3.org/1999/xlink">
<g id="graph0" class="graph" transform="scale(1 1) rotate(0) translate(4 95)">
<title>System_Architecture</title>
<polygon fill="white" stroke="transparent" points="-4,4 -4,-95 501,-95 501,4 -4,4"/>
<g id="clust1" class="cluster">
<title>cluster_presentation</title>
<polygon fill="lightblue" stroke="lightblue" points="8,-8 8,-83 161,-83 161,-8 8,-8"/>
<text text-anchor="middle" x="84.5" y="-67.8" font-family="Times,serif" font-size="14.00">Presentation Layer</text>
</g>
<g id="clust2" class="cluster">
<title>cluster_business</title>
<polygon fill="lightyellow" stroke="lightyellow" points="169,-8 169,-83 337,-83 337,-8 169,-8"/>
<text text-anchor="middle" x="253" y="-67.8" font-family="Times,serif" font-size="14.00">Business Logic Layer</text>
</g>
<g id="clust3" class="cluster">
<title>cluster_data</title>
<polygon fill="lightcoral" stroke="lightcoral" points="345,-8 345,-83 489,-83 489,-8 345,-8"/>
<text text-anchor="middle" x="417" y="-67.8" font-family="Times,serif" font-size="14.00">Data Layer</text>
</g>
<!-- landing -->
<g id="node1" class="node">
<title>landing</title>
<polygon fill="none" stroke="black" points="140.5,-52 27.5,-52 27.5,-16 140.5,-16 140.5,-52"/>
<text text-anchor="middle" x="84" y="-30.3" font-family="Times,serif" font-size="14.00">Landing Page</text>
</g>
<!-- auth_api -->
<g id="node2" class="node">
<title>auth_api</title>
<polygon fill="none" stroke="black" points="296.5,-52 209.5,-52 209.5,-16 296.5,-16 296.5,-52"/>
<text text-anchor="middle" x="253" y="-30.3" font-family="Times,serif" font-size="14.00">Auth APIs</text>
</g>
<!-- dev_db -->
<g id="node3" class="node">
<title>dev_db</title>
<path fill="none" stroke="black" d="M481,-48.73C481,-50.53 452.31,-52 417,-52 381.69,-52 353,-50.53 353,-48.73 353,-48.73 353,-19.27 353,-19.27 353,-17.47 381.69,-16 417,-16 452.31,-16 481,-17.47 481,-19.27 481,-19.27 481,-48.73 481,-48.73"/>
<path fill="none" stroke="black" d="M481,-48.73C481,-46.92 452.31,-45.45 417,-45.45 381.69,-45.45 353,-46.92 353,-48.73"/>
<text text-anchor="middle" x="417" y="-30.3" font-family="Times,serif" font-size="14.00">developers.json</text>
</g>
</g>
</svg>
