<?xml version="1.0" encoding="UTF-8" standalone="no"?>
<!DOCTYPE svg PUBLIC "-//W3C//DTD SVG 1.1//EN"
 "http://www.w3.org/Graphics/SVG/1.1/DTD/svg11.dtd">
<!-- Generated by graphviz version 2.43.0 (0)
 -->
<!-- Title: Use_Case_Diagram Pages: 1 -->
<svg width="109pt" height="864pt"
 viewBox="0.00 0.00 109.05 864.00" xmlns="http://www.w3.org/2000/svg" xmlns:xlink="http://www.w3.org/1999/xlink">
<g id="graph0" class="graph" transform="scale(0.6 0.6) rotate(0) translate(4 1430)">
<title>Use_Case_Diagram</title>
<polygon fill="white" stroke="transparent" points="-4,4 -4,-1430 177,-1430 177,4 -4,4"/>
<g id="clust1" class="cluster">
<title>cluster_0</title>
<polygon fill="none" stroke="blue" stroke-dasharray="5,2" points="0,-8 0,-1220 173,-1220 173,-8 0,-8"/>
<text text-anchor="middle" x="86.5" y="-1203.2" font-family="Times,serif" font-size="16.00">RosterBhai System</text>
</g>
<!-- UC01 -->
<g id="node1" class="node">
<title>UC01</title>
<path fill="none" stroke="black" d="M118,-1186C118,-1186 55,-1186 55,-1186 49,-1186 43,-1180 43,-1174 43,-1174 43,-1162 43,-1162 43,-1156 49,-1150 55,-1150 55,-1150 118,-1150 118,-1150 124,-1150 130,-1156 130,-1162 130,-1162 130,-1174 130,-1174 130,-1180 124,-1186 118,-1186"/>
<text text-anchor="middle" x="86.5" y="-1164.3" font-family="Arial" font-size="14.00">Use Case 1</text>
</g>
<!-- UC02 -->
<g id="node2" class="node">
<title>UC02</title>
<path fill="none" stroke="black" d="M118,-1132C118,-1132 55,-1132 55,-1132 49,-1132 43,-1126 43,-1120 43,-1120 43,-1108 43,-1108 43,-1102 49,-1096 55,-1096 55,-1096 118,-1096 118,-1096 124,-1096 130,-1102 130,-1108 130,-1108 130,-1120 130,-1120 130,-1126 124,-1132 118,-1132"/>
<text text-anchor="middle" x="86.5" y="-1110.3" font-family="Arial" font-size="14.00">Use Case 2</text>
</g>
<!-- UC03 -->
<g id="node3" class="node">
<title>UC03</title>
<path fill="none" stroke="black" d="M118,-1078C118,-1078 55,-1078 55,-1078 49,-1078 43,-1072 43,-1066 43,-1066 43,-1054 43,-1054 43,-1048 49,-1042 55,-1042 55,-1042 118,-1042 118,-1042 124,-1042 130,-1048 130,-1054 130,-1054 130,-1066 130,-1066 130,-1072 124,-1078 118,-1078"/>
<text text-anchor="middle" x="86.5" y="-1056.3" font-family="Arial" font-size="14.00">Use Case 3</text>
</g>
<!-- UC04 -->
<g id="node4" class="node">
<title>UC04</title>
<path fill="none" stroke="black" d="M118,-1024C118,-1024 55,-1024 55,-1024 49,-1024 43,-1018 43,-1012 43,-1012 43,-1000 43,-1000 43,-994 49,-988 55,-988 55,-988 118,-988 118,-988 124,-988 130,-994 130,-1000 130,-1000 130,-1012 130,-1012 130,-1018 124,-1024 118,-1024"/>
<text text-anchor="middle" x="86.5" y="-1002.3" font-family="Arial" font-size="14.00">Use Case 4</text>
</g>
<!-- UC05 -->
<g id="node5" class="node">
<title>UC05</title>
<path fill="none" stroke="black" d="M118,-970C118,-970 55,-970 55,-970 49,-970 43,-964 43,-958 43,-958 43,-946 43,-946 43,-940 49,-934 55,-934 55,-934 118,-934 118,-934 124,-934 130,-940 130,-946 130,-946 130,-958 130,-958 130,-964 124,-970 118,-970"/>
<text text-anchor="middle" x="86.5" y="-948.3" font-family="Arial" font-size="14.00">Use Case 5</text>
</g>
<!-- UC06 -->
<g id="node6" class="node">
<title>UC06</title>
<path fill="none" stroke="black" d="M118,-916C118,-916 55,-916 55,-916 49,-916 43,-910 43,-904 43,-904 43,-892 43,-892 43,-886 49,-880 55,-880 55,-880 118,-880 118,-880 124,-880 130,-886 130,-892 130,-892 130,-904 130,-904 130,-910 124,-916 118,-916"/>
<text text-anchor="middle" x="86.5" y="-894.3" font-family="Arial" font-size="14.00">Use Case 6</text>
</g>
<!-- UC07 -->
<g id="node7" class="node">
<title>UC07</title>
<path fill="none" stroke="black" d="M118,-862C118,-862 55,-862 55,-862 49,-862 43,-856 43,-850 43,-850 43,-838 43,-838 43,-832 49,-826 55,-826 55,-826 118,-826 118,-826 124,-826 130,-832 130,-838 130,-838 130,-850 130,-850 130,-856 124,-862 118,-862"/>
<text text-anchor="middle" x="86.5" y="-840.3" font-family="Arial" font-size="14.00">Use Case 7</text>
</g>
<!-- UC08 -->
<g id="node8" class="node">
<title>UC08</title>
<path fill="none" stroke="black" d="M118,-808C118,-808 55,-808 55,-808 49,-808 43,-802 43,-796 43,-796 43,-784 43,-784 43,-778 49,-772 55,-772 55,-772 118,-772 118,-772 124,-772 130,-778 130,-784 130,-784 130,-796 130,-796 130,-802 124,-808 118,-808"/>
<text text-anchor="middle" x="86.5" y="-786.3" font-family="Arial" font-size="14.00">Use Case 8</text>
</g>
<!-- UC09 -->
<g id="node9" class="node">
<title>UC09</title>
<path fill="none" stroke="black" d="M118,-754C118,-754 55,-754 55,-754 49,-754 43,-748 43,-742 43,-742 43,-730 43,-730 43,-724 49,-718 55,-718 55,-718 118,-718 118,-718 124,-718 130,-724 130,-730 130,-730 130,-742 130,-742 130,-748 124,-754 118,-754"/>
<text text-anchor="middle" x="86.5" y="-732.3" font-family="Arial" font-size="14.00">Use Case 9</text>
</g>
<!-- UC10 -->
<g id="node10" class="node">
<title>UC10</title>
<path fill="none" stroke="black" d="M122,-700C122,-700 51,-700 51,-700 45,-700 39,-694 39,-688 39,-688 39,-676 39,-676 39,-670 45,-664 51,-664 51,-664 122,-664 122,-664 128,-664 134,-670 134,-676 134,-676 134,-688 134,-688 134,-694 128,-700 122,-700"/>
<text text-anchor="middle" x="86.5" y="-678.3" font-family="Arial" font-size="14.00">Use Case 10</text>
</g>
<!-- UC11 -->
<g id="node11" class="node">
<title>UC11</title>
<path fill="none" stroke="black" d="M121.5,-646C121.5,-646 51.5,-646 51.5,-646 45.5,-646 39.5,-640 39.5,-634 39.5,-634 39.5,-622 39.5,-622 39.5,-616 45.5,-610 51.5,-610 51.5,-610 121.5,-610 121.5,-610 127.5,-610 133.5,-616 133.5,-622 133.5,-622 133.5,-634 133.5,-634 133.5,-640 127.5,-646 121.5,-646"/>
<text text-anchor="middle" x="86.5" y="-624.3" font-family="Arial" font-size="14.00">Use Case 11</text>
</g>
<!-- UC12 -->
<g id="node12" class="node">
<title>UC12</title>
<path fill="none" stroke="black" d="M122,-592C122,-592 51,-592 51,-592 45,-592 39,-586 39,-580 39,-580 39,-568 39,-568 39,-562 45,-556 51,-556 51,-556 122,-556 122,-556 128,-556 134,-562 134,-568 134,-568 134,-580 134,-580 134,-586 128,-592 122,-592"/>
<text text-anchor="middle" x="86.5" y="-570.3" font-family="Arial" font-size="14.00">Use Case 12</text>
</g>
<!-- UC13 -->
<g id="node13" class="node">
<title>UC13</title>
<path fill="none" stroke="black" d="M122,-538C122,-538 51,-538 51,-538 45,-538 39,-532 39,-526 39,-526 39,-514 39,-514 39,-508 45,-502 51,-502 51,-502 122,-502 122,-502 128,-502 134,-508 134,-514 134,-514 134,-526 134,-526 134,-532 128,-538 122,-538"/>
<text text-anchor="middle" x="86.5" y="-516.3" font-family="Arial" font-size="14.00">Use Case 13</text>
</g>
<!-- UC14 -->
<g id="node14" class="node">
<title>UC14</title>
<path fill="none" stroke="black" d="M122,-484C122,-484 51,-484 51,-484 45,-484 39,-478 39,-472 39,-472 39,-460 39,-460 39,-454 45,-448 51,-448 51,-448 122,-448 122,-448 128,-448 134,-454 134,-460 134,-460 134,-472 134,-472 134,-478 128,-484 122,-484"/>
<text text-anchor="middle" x="86.5" y="-462.3" font-family="Arial" font-size="14.00">Use Case 14</text>
</g>
<!-- UC15 -->
<g id="node15" class="node">
<title>UC15</title>
<path fill="none" stroke="black" d="M122,-430C122,-430 51,-430 51,-430 45,-430 39,-424 39,-418 39,-418 39,-406 39,-406 39,-400 45,-394 51,-394 51,-394 122,-394 122,-394 128,-394 134,-400 134,-406 134,-406 134,-418 134,-418 134,-424 128,-430 122,-430"/>
<text text-anchor="middle" x="86.5" y="-408.3" font-family="Arial" font-size="14.00">Use Case 15</text>
</g>
<!-- UC16 -->
<g id="node16" class="node">
<title>UC16</title>
<path fill="none" stroke="black" d="M122,-376C122,-376 51,-376 51,-376 45,-376 39,-370 39,-364 39,-364 39,-352 39,-352 39,-346 45,-340 51,-340 51,-340 122,-340 122,-340 128,-340 134,-346 134,-352 134,-352 134,-364 134,-364 134,-370 128,-376 122,-376"/>
<text text-anchor="middle" x="86.5" y="-354.3" font-family="Arial" font-size="14.00">Use Case 16</text>
</g>
<!-- UC17 -->
<g id="node17" class="node">
<title>UC17</title>
<path fill="none" stroke="black" d="M122,-322C122,-322 51,-322 51,-322 45,-322 39,-316 39,-310 39,-310 39,-298 39,-298 39,-292 45,-286 51,-286 51,-286 122,-286 122,-286 128,-286 134,-292 134,-298 134,-298 134,-310 134,-310 134,-316 128,-322 122,-322"/>
<text text-anchor="middle" x="86.5" y="-300.3" font-family="Arial" font-size="14.00">Use Case 17</text>
</g>
<!-- UC18 -->
<g id="node18" class="node">
<title>UC18</title>
<path fill="none" stroke="black" d="M122,-268C122,-268 51,-268 51,-268 45,-268 39,-262 39,-256 39,-256 39,-244 39,-244 39,-238 45,-232 51,-232 51,-232 122,-232 122,-232 128,-232 134,-238 134,-244 134,-244 134,-256 134,-256 134,-262 128,-268 122,-268"/>
<text text-anchor="middle" x="86.5" y="-246.3" font-family="Arial" font-size="14.00">Use Case 18</text>
</g>
<!-- UC19 -->
<g id="node19" class="node">
<title>UC19</title>
<path fill="none" stroke="black" d="M122,-214C122,-214 51,-214 51,-214 45,-214 39,-208 39,-202 39,-202 39,-190 39,-190 39,-184 45,-178 51,-178 51,-178 122,-178 122,-178 128,-178 134,-184 134,-190 134,-190 134,-202 134,-202 134,-208 128,-214 122,-214"/>
<text text-anchor="middle" x="86.5" y="-192.3" font-family="Arial" font-size="14.00">Use Case 19</text>
</g>
<!-- UC20 -->
<g id="node20" class="node">
<title>UC20</title>
<path fill="none" stroke="black" d="M122,-160C122,-160 51,-160 51,-160 45,-160 39,-154 39,-148 39,-148 39,-136 39,-136 39,-130 45,-124 51,-124 51,-124 122,-124 122,-124 128,-124 134,-130 134,-136 134,-136 134,-148 134,-148 134,-154 128,-160 122,-160"/>
<text text-anchor="middle" x="86.5" y="-138.3" font-family="Arial" font-size="14.00">Use Case 20</text>
</g>
<!-- UC21 -->
<g id="node21" class="node">
<title>UC21</title>
<path fill="none" stroke="black" d="M122,-106C122,-106 51,-106 51,-106 45,-106 39,-100 39,-94 39,-94 39,-82 39,-82 39,-76 45,-70 51,-70 51,-70 122,-70 122,-70 128,-70 134,-76 134,-82 134,-82 134,-94 134,-94 134,-100 128,-106 122,-106"/>
<text text-anchor="middle" x="86.5" y="-84.3" font-family="Arial" font-size="14.00">Use Case 21</text>
</g>
<!-- UC22 -->
<g id="node22" class="node">
<title>UC22</title>
<path fill="none" stroke="black" d="M122,-52C122,-52 51,-52 51,-52 45,-52 39,-46 39,-40 39,-40 39,-28 39,-28 39,-22 45,-16 51,-16 51,-16 122,-16 122,-16 128,-16 134,-22 134,-28 134,-28 134,-40 134,-40 134,-46 128,-52 122,-52"/>
<text text-anchor="middle" x="86.5" y="-30.3" font-family="Arial" font-size="14.00">Use Case 22</text>
</g>
<!-- company -->
<g id="node23" class="node">
<title>company</title>
<polygon fill="lightyellow" stroke="black" points="129.5,-1264 43.5,-1264 43.5,-1228 129.5,-1228 129.5,-1264"/>
<text text-anchor="middle" x="86.5" y="-1249.4" font-family="Arial" font-size="12.00">&lt;&lt;ACTOR&gt;&gt;</text>
<text text-anchor="middle" x="86.5" y="-1236.4" font-family="Arial" font-size="12.00">Company</text>
</g>
<!-- developer -->
<g id="node24" class="node">
<title>developer</title>
<polygon fill="lightyellow" stroke="black" points="129.5,-1318 43.5,-1318 43.5,-1282 129.5,-1282 129.5,-1318"/>
<text text-anchor="middle" x="86.5" y="-1303.4" font-family="Arial" font-size="12.00">&lt;&lt;ACTOR&gt;&gt;</text>
<text text-anchor="middle" x="86.5" y="-1290.4" font-family="Arial" font-size="12.00">Developer</text>
</g>
<!-- admin -->
<g id="node25" class="node">
<title>admin</title>
<polygon fill="lightyellow" stroke="black" points="129.5,-1372 43.5,-1372 43.5,-1336 129.5,-1336 129.5,-1372"/>
<text text-anchor="middle" x="86.5" y="-1357.4" font-family="Arial" font-size="12.00">&lt;&lt;ACTOR&gt;&gt;</text>
<text text-anchor="middle" x="86.5" y="-1344.4" font-family="Arial" font-size="12.00">Admin</text>
</g>
<!-- employee -->
<g id="node26" class="node">
<title>employee</title>
<polygon fill="lightyellow" stroke="black" points="129.5,-1426 43.5,-1426 43.5,-1390 129.5,-1390 129.5,-1426"/>
<text text-anchor="middle" x="86.5" y="-1411.4" font-family="Arial" font-size="12.00">&lt;&lt;ACTOR&gt;&gt;</text>
<text text-anchor="middle" x="86.5" y="-1398.4" font-family="Arial" font-size="12.00">Employee</text>
</g>
</g>
</svg>
